<?xml version="1.0" encoding="UTF-8" standalone="no"?>
<!-- Created with Inkscape (http://www.inkscape.org/) -->
<svg
   width="1920mm"
   height="120mm"
   viewBox="0 0 1920 120"
   version="1.1"
   id="svg1"
   inkscape:version="1.3.2 (1:1.3.2+202311252150+091e20ef0f)"
   sodipodi:docname="header.svg"
   xmlns:inkscape="http://www.inkscape.org/namespaces/inkscape"
   xmlns:sodipodi="http://sodipodi.sourceforge.net/DTD/sodipodi-0.dtd"
   xmlns="http://www.w3.org/2000/svg"
   xmlns:svg="http://www.w3.org/2000/svg">
   <sodipodi:namedview
     id="namedview1"
     pagecolor="#ffffff"
     bordercolor="#666666"
     borderopacity="1.0"
     inkscape:showpageshadow="2"
     inkscape:pageopacity="0.0"
     inkscape:pagecheckerboard="0"
     inkscape:deskcolor="#d1d1d1"
     inkscape:document-units="mm"
     inkscape:zoom="0.84987376"
     inkscape:cx="5199.5958"
     inkscape:cy="245.91888"
     inkscape:window-width="3840"
     inkscape:window-height="2091"
     inkscape:window-x="3840"
     inkscape:window-y="32"
     inkscape:window-maximized="1"
     inkscape:current-layer="g160" />
   <defs
     id="defs1" />
   <g
     inkscape:label="Layer 1"
     inkscape:groupmode="layer"
     id="layer1">
      <g
       stroke-width="1"
       stroke-linejoin="bevel"
       id="g160"
       style="opacity:0.617116">
         <path
         d="m 942,80 -75,40 h 103 z"
         fill="#ed7533"
         id="path81" />
         <path
         d="m 942,80 -83,-34 8,74 z"
         fill="#e7651e"
         id="path82" />
         <path
         d="M 1050,51 961,0 942,80 Z"
         fill="#eb702c"
         id="path83" />
         <path
         d="M 942,80 961,0 859,46 Z"
         fill="#ef7b39"
         id="path84" />
         <path
         d="M 961,0 H 859 v 46 z"
         fill="#f28546"
         id="path85" />
         <path
         d="M 970,120 1050,51 942,80 Z"
         fill="#e4590e"
         id="path86" />
         <path
         d="m 970,120 h 105 l -25,-69 z"
         fill="#f28546"
         id="path87" />
         <path
         d="m 758,78 v 42 h 109 z"
         fill="#f1803f"
         id="path88" />
         <path
         d="m 758,78 109,42 -8,-74 z"
         fill="#f1803f"
         id="path89" />
         <path
         d="M 765,0 758,78 859,46 Z"
         fill="#e65f17"
         id="path90" />
         <path
         d="m 1157,72 -98,-72 -9,51 z"
         fill="#e65f17"
         id="path91" />
         <path
         d="m 1050,51 9,-51 h -98 z"
         fill="#ef7b39"
         id="path92" />
         <path
         d="m 859,0 h -94 l 94,46 z"
         fill="#e65f17"
         id="path93" />
         <path
         d="m 765,0 -75,58 68,20 z"
         fill="#f1803f"
         id="path94" />
         <path
         d="m 758,78 -68,-20 68,62 z"
         fill="#e96a25"
         id="path95" />
         <path
         d="M 1075,120 1157,72 1050,51 Z"
         fill="#e96a25"
         id="path96" />
         <path
         d="m 690,58 -23,62 h 91 z"
         fill="#e7651e"
         id="path97" />
         <path
         d="m 1075,120 h 97 l -15,-48 z"
         fill="#f48a4c"
         id="path98" />
         <path
         d="m 765,0 h -76 l 1,58 z"
         fill="#e4590e"
         id="path99" />
         <path
         d="m 572,72 3,48 h 92 z"
         fill="#f48a4c"
         id="path100" />
         <path
         d="m 1241,57 -77,-57 -7,72 z"
         fill="#f1803f"
         id="path101" />
         <path
         d="m 1157,72 7,-72 h -105 z"
         fill="#f1803f"
         id="path102" />
         <path
         d="m 1172,120 h 60 l -75,-48 z"
         fill="#f28546"
         id="path103" />
         <path
         d="m 1232,120 9,-63 -84,15 z"
         fill="#ed7533"
         id="path104" />
         <path
         d="m 572,72 95,48 23,-62 z"
         fill="#e65f17"
         id="path105" />
         <path
         d="m 1241,57 1,-57 h -78 z"
         fill="#e25303"
         id="path106" />
         <path
         d="M 583,0 572,72 690,58 Z"
         fill="#ed7533"
         id="path107" />
         <path
         d="M 689,0 H 583 l 107,58 z"
         fill="#f48a4c"
         id="path108" />
         <path
         d="M 1364,54 1328,0 1241,57 Z"
         fill="#e4590e"
         id="path109" />
         <path
         d="m 1241,57 87,-57 h -86 z"
         fill="#e25303"
         id="path110" />
         <path
         d="m 471,41 13,79 88,-48 z"
         fill="#e7651e"
         id="path111" />
         <path
         d="m 572,72 -88,48 h 91 z"
         fill="#eb702c"
         id="path112" />
         <path
         d="m 1232,120 h 125 L 1241,57 Z"
         fill="#f48a4c"
         id="path113" />
         <path
         d="m 583,0 h -95 l 84,72 z"
         fill="#e4590e"
         id="path114" />
         <path
         d="m 1357,120 7,-66 -123,3 z"
         fill="#f1803f"
         id="path115" />
         <path
         d="M 488,0 471,41 572,72 Z"
         fill="#e4590e"
         id="path116" />
         <path
         d="m 1357,120 71,-56 -64,-10 z"
         fill="#eb702c"
         id="path117" />
         <path
         d="M 1364,54 1443,0 H 1328 Z"
         fill="#f1803f"
         id="path118" />
         <path
         d="m 1357,120 h 85 l -14,-56 z"
         fill="#f28546"
         id="path119" />
         <path
         d="m 391,0 8,53 72,-12 z"
         fill="#f1803f"
         id="path120" />
         <path
         d="m 471,41 -72,12 85,67 z"
         fill="#f48a4c"
         id="path121" />
         <path
         d="m 1520,0 h -77 l -15,64 z"
         fill="#ed7533"
         id="path122" />
         <path
         d="m 1428,64 15,-64 -79,54 z"
         fill="#eb702c"
         id="path123" />
         <path
         d="m 399,53 -21,67 h 106 z"
         fill="#e4590e"
         id="path124" />
         <path
         d="m 488,0 h -97 l 80,41 z"
         fill="#e65f17"
         id="path125" />
         <path
         d="m 295,73 11,47 h 72 z"
         fill="#f48a4c"
         id="path126" />
         <path
         d="m 295,73 83,47 21,-67 z"
         fill="#ed7533"
         id="path127" />
         <path
         d="M 1555,51 1520,0 1428,64 Z"
         fill="#eb702c"
         id="path128" />
         <path
         d="m 1442,120 h 102 L 1428,64 Z"
         fill="#e96a25"
         id="path129" />
         <path
         d="M 391,0 295,73 399,53 Z"
         fill="#e7651e"
         id="path130" />
         <path
         d="M 391,0 H 291 l 4,73 z"
         fill="#eb702c"
         id="path131" />
         <path
         d="m 1544,120 11,-69 -127,13 z"
         fill="#e7651e"
         id="path132" />
         <path
         d="M 1652,48 1619,0 1555,51 Z"
         fill="#f1803f"
         id="path133" />
         <path
         d="m 1555,51 64,-51 h -99 z"
         fill="#e25303"
         id="path134" />
         <path
         d="m 205,0 -5,81 95,-8 z"
         fill="#eb702c"
         id="path135" />
         <path
         d="m 295,73 -95,8 106,39 z"
         fill="#e96a25"
         id="path136" />
         <path
         d="m 291,0 h -86 l 90,73 z"
         fill="#f1803f"
         id="path137" />
         <path
         d="m 117,120 h 73 l 10,-39 z"
         fill="#ef7b39"
         id="path138" />
         <path
         d="m 200,81 -10,39 h 116 z"
         fill="#ed7533"
         id="path139" />
         <path
         d="m 1544,120 h 104 l -93,-69 z"
         fill="#e25303"
         id="path140" />
         <path
         d="m 1648,120 4,-72 -97,3 z"
         fill="#e4590e"
         id="path141" />
         <path
         d="m 1648,120 h 65 l -61,-72 z"
         fill="#e96a25"
         id="path142" />
         <path
         d="m 1652,48 58,-48 h -91 z"
         fill="#f48a4c"
         id="path143" />
         <path
         d="M 1735,49 1710,0 1652,48 Z"
         fill="#eb702c"
         id="path144" />
         <path
         d="m 104,56 13,64 83,-39 z"
         fill="#eb702c"
         id="path145" />
         <path
         d="M 205,0 104,56 200,81 Z"
         fill="#f1803f"
         id="path146" />
         <path
         d="M 111,0 104,56 205,0 Z"
         fill="#eb702c"
         id="path147" />
         <path
         d="m 1713,120 22,-71 -83,-1 z"
         fill="#f28546"
         id="path148" />
         <path
         d="M 1828,41 1808,0 1735,49 Z"
         fill="#f28546"
         id="path149" />
         <path
         d="m 1735,49 73,-49 h -98 z"
         fill="#ef7b39"
         id="path150" />
         <path
         d="m 1835,120 -7,-79 -93,8 z"
         fill="#ef7b39"
         id="path151" />
         <path
         d="m 1713,120 h 122 L 1735,49 Z"
         fill="#f28546"
         id="path152" />
         <path
         d="m 0,72 v 48 L 104,56 Z"
         fill="#e96a25"
         id="path153" />
         <path
         d="M 104,56 0,120 h 117 z"
         fill="#e7651e"
         id="path154" />
         <path
         d="M 0,0 V 72 L 104,56 Z"
         fill="#f28546"
         id="path155" />
         <path
         d="M 111,0 H 0 l 104,56 z"
         fill="#f28546"
         id="path156" />
         <path
         d="m 1835,120 85,-54 -92,-25 z"
         fill="#eb702c"
         id="path157" />
         <path
         d="M 1828,41 1920,0 H 1808 Z"
         fill="#f48a4c"
         id="path158" />
         <path
         d="M 1920,120 V 66 l -85,54 z"
         fill="#eb702c"
         id="path159" />
         <path
         d="M 1920,66 V 0 l -92,41 z"
         fill="#f1803f"
         id="path160" />
      </g>
   </g>
</svg>